<svg viewBox="0 0 12.1 2.1"><path d="M0 1q.2.2.5.2c0 .3-.4.4-.1.7l.2.2h.2l.3-.4q.1.3.4.4.4 0 .3-.4l-.3-.4c0-.3.3 0 .5-.1V.6L1.7.5l-.3.1c-.3 0 0-.2 0-.3q0-.2-.3-.3H1Q.7 0 .8.2L.7.7.2.4zm5 0q.2.2.6.2c0 .3-.4.4-.2.7l.3.2h.2q0-.4.2-.4h.1c.2.2 0 .4.3.4Q7 2 7 1.7l-.3-.4c0-.3.3 0 .4-.1V.6L6.8.5l-.3.1q-.2 0 0-.3 0-.2-.2-.3h-.4l-.1.2v.5L5.1.4zm5 0q.2.2.6.2c0 .3-.4.4-.2.7l.3.2h.2l.2-.4h.2q0 .3.2.4.4 0 .4-.4l-.3-.4c0-.3.3 0 .4-.1q.2-.2 0-.6l-.1-.1-.3.1q-.3 0-.1-.3 0-.2-.2-.3H11l-.2.2v.5l-.5-.3c-.1 0-.3.6-.2.7" fill="red"/></svg>