<svg viewBox="0 0 130 21"><path d="M.14 1.95c.03.5-.03.98.03 1.45.03.56 0 .53.53.59.92.09 1.87-.03 2.78 0 .2 2.36.06 4.76.06 7.12.03 2.28-.03 4.55 0 6.83 0 .65-.3 2.45.36 2.72.29.09.8-.06 1.12-.06.5-.03 1 .03 1.5 0 .74-.03.69-.12.71-.8v-1.74q-.04-1.62-.03-3.22c0-2.07-.08-4.14-.03-6.21.03-.83-.03-1.68-.05-2.54l-.03-1.45c.03-.5-.03-.65.47-.83.44-.14 1.1-.03 1.57-.03.62-.03 1.03.1 1.2-.53.15-.65.12-1.8.07-2.48-.1-.56-.03-.44-.6-.5Q9.42.22 9.04.2 8.29.17 7.53.18 4.22.18.91.27C.5.27.2.2.05.5c-.15.27.06 1.16.1 1.45M13.32 20.6c.6.06 1.21.03 1.83.03.57 0 .68.06.86-.47.2-.5 0-1.54.03-2.13v-4.26c0-.23-.2-1.62.39-1.39.23.06.56 1.42.65 1.66.91 2.13 1.65 4.55 2.83 6.53.71.09 1.83-.03 2.57-.09.86-.06.8-.38.54-1.12-.42-1.27-1-2.51-1.51-3.76-.27-.59-1.57-3.33-1.54-3.72.06-.44.74-.65 1.1-.89 1.62-1.12 1.97-2.45 2.06-4.37.1-1.18.15-2.28-.5-3.31C21.4 1.36 19.33.62 17.1.41c-1.12-.08-2.3-.03-3.42.1-.65.05-.98.14-1.07.85-.06.6 0 1.24-.03 1.86l-.12 7.8-.02 8.25c0 .94-.15 1.21.88 1.33M16.2 4.08q.2-.35.62-.33c.77 0 1.86.62 2.16 1.04.7.91.62 2.18-.24 2.98a2.7 2.7 0 0 1-1.83.68q-.41 0-.74-.15c-.03-.73 0-1.47 0-2.21 0-.53-.2-1.54.03-2.01m9.65 6.68c0 1.71.12 3.43.21 5.14.12 3.04 2.04 5.11 5.11 5.11 1.57 0 3.1-.65 3.96-2.1.74-1.2 1-2.57.89-3.96-.09-1.53 0-3.1-.03-4.64-.09-2.95.06-5.9.18-8.86.03-.8.14-1.24-.68-1.3a10 10 0 0 0-2.25.03c-.8.15-.62.91-.59 1.6l.12 2.24c.17 3.43.09 6.92.03 10.37 0 1-.15 2.99-1.48 3.16-1.54.21-1.74-1.56-1.83-2.69-.27-3.27-.12-6.58-.18-9.9q-.04-1.2-.03-2.45V1.27s.09-.77.06-.83c-.12-.3-.68-.41-1.33-.41-.77 0-1.66.15-2.04.32-.15 3.46-.12 6.95-.12 10.4m13.75 9.73c.29.36.94.27 1.35.24.45-.03.9.06 1.36.03.65-.03.8-.1.74-.71q-.05-.72-.06-1.42c0-1.98.03-3.9.03-5.88 0-.15-.11-.86.03-.98.33-.2.6.62.68.8a25 25 0 0 1 1.98 5c.2.67.39 1.77.86 2.33.15.15.33.3.56.3q.18 0 .36-.12c.26-.18.26-.65.35-.98.27-.83.65-1.6.98-2.42.17-.48 1.41-4.73 2-4.55.45.11.18 2.6.18 2.95q-.03 1.62.03 3.22c0 .57-.32 2.04.12 2.3q.22.14.47.13c.33 0 .71-.12.98-.12.38 0 .74.12 1.15.06 1.03-.15.83-.98.83-1.86 0-.95-.06-1.9-.09-2.84-.09-3.7.06-7.39.06-11.11 0-1.04.03-2.07-.03-3.1C54.43.61 54.32.3 53.19.2c-.68-.06-1.54-.18-1.95.35-.5.71-.89 1.74-1.24 2.51-.42.95-.71 1.92-1.16 2.84s-.97 1.77-1.38 2.66c-.1.2-.24.86-.42.95-.3.14-.5-.42-.62-.65-.47-.83-1.03-1.66-1.36-2.55-.62-1.68-1.42-3.34-2-5.05-.19-.59-.19-.92-.84-.97-.8-.1-1.8-.1-2.6.08-.2 2.34-.17 4.7-.14 7.1 0 2.04-.03 4.1.03 6.17.05 1.21.03 2.37-.03 3.58-.03.74-.39 2.66.11 3.25M57.95 2.22c.03 2.18.03 4.34.09 6.53.03 1.86.09 3.72.06 5.58-.03.89-.03 1.75-.1 2.63-.02.98-.2 2.22 0 3.2.1.5-.02.35.42.5.18.09.6.06.77.06q.66.05 1.33 0c.5-.06.83.03.97-.48.1-.35-.03-1.03 0-1.41.12-1.87-.03-3.73-.03-5.59.77-.65 2.1-.38 3.05-.65a6 6 0 0 0 2.45-1.33c1.39-1.42 1.69-3.49 1.66-5.38 0-1.74-.77-3.87-2.25-4.85-1.54-1.03-3.46-.88-5.2-.8-.5.04-1 0-1.5 0-.33 0-1.07-.11-1.37 0-.62.27-.35 1.34-.35 1.99m3.6 4.81q.03-1.23-.03-2.48c0-.91.24-.88 1.16-.91.65 0 1.5.08 2.03.53.95.76.92 2.95.39 3.93-.47.85-1.5 1.18-2.45 1.18q-.46 0-.86-.09c-.44-.53-.24-1.5-.24-2.16m9.49-4.31-.03 6.15q0 2.97.09 5.94c.03 1.06.09 2.12.03 3.16-.03.83-.15 1.6-.03 2.42.65.53 2.04.2 2.84.27q.98.1 2 .12c2.99 0 4.8-1.45 6.12-4.17.83-1.74.98-3.67 1.1-5.56.06-1.03.17-2-.03-3.04-.42-1.9-1-3.78-1.92-5.5-.42-.77-1.07-1.12-1.84-1.5-1.62-.83-3.63-.9-5.4-.8-.71.03-2.04-.33-2.6.26-.48.5-.33 1.63-.33 2.25m3.99 1c1.54-.12 2.45.1 3.37 1.4.74 1.09.86 2.56.97 3.86.21 2.46.27 5.53-1.65 7.4-.39.38-1.18.82-1.83.82-.42 0-.77-.18-.92-.68-.18-.65-.12-1.5-.18-2.19-.03-.73-.11-1.47-.09-2.21.06-1.42-.02-2.87.06-4.29q.05-1.12.06-2.24c0-.5-.17-1.48.2-1.87m11.42 13.24a5.95 5.95 0 0 0 5.5 3.87 5 5 0 0 0 2.68-.73c2.93-1.84 3.37-6.06 3.31-9.22.21-3.76-.94-9.31-5.02-10.64a4 4 0 0 0-1.12-.15c-1.4 0-2.3.2-3.34 1.24a10 10 0 0 0-2.4 4.46 19 19 0 0 0 .39 11.17m2.04-5.9c-.03-1.57.2-3.2.7-4.68.36-1.09.86-2.6 2.07-3.01 1.42-.47 2.2 1.12 2.72 2.07a9 9 0 0 1 .95 4.1c.06 1.48.06 2.96-.2 4.4-.27 1.37-1.07 3.5-2.73 3.5-1.15 0-2.15-1.04-2.57-2.01a10 10 0 0 1-.94-4.38M99.85 1.9q1.66 8.47 3.43 16.9c.2 1 .12 1.89 1.3 1.92.6 0 1.48.14 2.01-.06.33-.53.24-1.16.36-1.75l.35-1.95.39-2.18c.11-.57.08-1.66.59-2.01.41.91.5 2.1.7 3.07l.63 3.13c.08.39.08 1.24.35 1.54.24.24.71.18.98.18.35 0 .76.09 1.15.09.47 0 .86-.12.97-.63.86-4.2 1.51-8.5 2.31-12.73q.5-2.75 1.06-5.5c.24-1.03.53-1.48-.65-1.5-.32-.04-.85-.12-1.33-.12-.38 0-.74.05-.91.32-.45.6-.39 2.01-.5 2.75l-.48 2.66q-.29 1.41-.53 2.84c-.09.44-.15 2.21-.47 2.45-.3.2-.24.2-.42-.24-.14-.3-.17-.7-.23-1.06-.21-.86-.36-1.72-.54-2.57q-.53-2.68-1.12-5.35c-.09-.42-.09-1.15-.3-1.48-.23-.35-.35-.32-.82-.32-.65 0-.62.02-.86.56-.15.35-.2.8-.26 1.18q-.41 2.6-.95 5.17c-.2.98-.35 1.98-.56 2.99-.06.35-.12 1.53-.53 1.27-.39-.24-.48-2.13-.57-2.57l-.53-2.72-.65-3.08c-.15-.74-.15-1.83-.53-2.45-.32-.5-1.48-.47-2.07-.44-1.18.09-.94.76-.77 1.68m19.21 1.07v2.86l.03 5.23c0 1.98.03 3.93 0 5.91-.03.71-.12 1.45-.12 2.16 0 .95 0 1.54 1.07 1.57.59 0 1.74.2 2.27-.06.45-.24.33-.3.3-.83 0-.41-.09-.8-.09-1.24 0-1.48.12-2.96.09-4.43 0-.57-.18-2.66.24-2.66.11 0 .3.17.53.62.74 1.39 1.1 2.86 1.62 4.31.3.83.56 1.69.89 2.48.18.45.3 1.1.6 1.48.23.3.82.47 1.41.47.77 0 1.54-.26 1.6-.82.08-.8-.12-1.78-.12-2.6l-.03-2.13c0-1.63.12-3.2.12-4.82V5.2c.03-1.45.26-3.01.03-4.5-.12-.64-.33-.58-.95-.58-.3-.03-1-.12-1.57-.12-.32 0-.59.03-.7.12-.42.3-.18 1.18-.15 1.6q.03 1.31-.03 2.62-.06 1.2-.03 2.43c0 .3.3 1.92-.1 2.1-.52.23-1.7-3.05-1.85-3.46-.45-1.36-1.04-2.7-1.51-4.02-.3-.8-.38-1-1.21-1.1a6 6 0 0 0-2.16.03c-.41.54-.15 1.98-.18 2.63"/></svg>